<?xml version="1.0" encoding="utf-8"?>
<!-- Generator: Adobe Illustrator 16.0.0, SVG Export Plug-In . SVG Version: 6.00 Build 0)  -->
<!DOCTYPE svg PUBLIC "-//W3C//DTD SVG 1.1//EN" "http://www.w3.org/Graphics/SVG/1.1/DTD/svg11.dtd">
<svg version="1.1" id="Layer_1" xmlns="http://www.w3.org/2000/svg" xmlns:xlink="http://www.w3.org/1999/xlink" x="0px" y="0px"
	 width="127.559px" height="306.141px" viewBox="0 0 127.559 306.141" enable-background="new 0 0 127.559 306.141"
	 xml:space="preserve">
<path d="M118.555,116.842c-4.301-1.056-9.275-2.36-13.711-4.196l-5.881,2.69v-1.12c0-1.804-1.462-3.266-3.268-3.266
	c-1.805,0-3.265,1.462-3.265,3.266v1.12l-5.881-2.689c-4.438,1.835-9.41,3.141-13.712,4.197c-1.746,0.428-2.025,0.943-2.025,1.333
	c0,0.686,2.088,0.686,2.088,0.686h19.531v2.935h-0.436H72.21H54.747H34.963h-0.437v-2.935h19.53c0,0,2.089,0,2.089-0.686
	c0-0.39-0.279-0.903-2.024-1.333c-4.303-1.057-9.275-2.361-13.711-4.197l-5.882,2.689v-1.12c0-1.804-1.462-3.266-3.266-3.266
	s-3.266,1.462-3.266,3.266v1.12l-5.881-2.69c-4.438,1.834-9.409,3.141-13.711,4.196c-1.747,0.431-2.026,0.944-2.026,1.333
	c0,0.687,2.088,0.687,2.088,0.687h19.53v3.596c0,1.625,1.191,2.964,2.747,3.214c0.133,0.027,0.268,0.044,0.408,0.044h0.028
	c0.028,0.002,0.054,0.009,0.082,0.009c0.028,0,0.053-0.007,0.082-0.009h3.619H51.56v3.99c-9.693,4.514-16.432,14.341-16.432,25.719
	c0,1.084,0.877,1.961,1.959,1.961c1.083,0,1.959-0.878,1.959-1.961c0-9.356,5.288-17.496,13.026-21.601
	c0.568,0.877,1.551,1.461,2.674,1.461h17.463c1.123,0,2.104-0.584,2.674-1.461c7.74,4.104,13.027,12.245,13.027,21.602
	c0,1.085,0.877,1.961,1.959,1.961s1.959-0.878,1.959-1.961c0-11.378-6.738-21.206-16.432-25.719v-3.989h16.6h3.619
	c0.027,0.001,0.053,0.009,0.08,0.009c0.029,0,0.056-0.008,0.082-0.009h0.028c0.14,0,0.276-0.016,0.408-0.045
	c1.556-0.25,2.747-1.587,2.747-3.213v-3.597h19.529c0,0,2.089,0,2.089-0.686C120.581,117.786,120.303,117.272,118.555,116.842z"/>
</svg>
